<svg version="1.1" id="Layer_1" xmlns="http://www.w3.org/2000/svg" xmlns:xlink="http://www.w3.org/1999/xlink" x="0px" y="0px"
	 width="100%" viewBox="0 0 1536 1024" enable-background="new 0 0 1536 1024" xml:space="preserve">
<path fill="#161A25" opacity="1.000000" stroke="none" 
	d="
M841.000000,1025.000000 
	C560.666687,1025.000000 280.833344,1025.000000 1.000000,1025.000000 
	C1.000000,683.666687 1.000000,342.333344 1.000000,1.000000 
	C513.000000,1.000000 1025.000000,1.000000 1537.000000,1.000000 
	C1537.000000,342.333344 1537.000000,683.666687 1537.000000,1025.000000 
	C1305.166626,1025.000000 1073.333374,1025.000000 841.000000,1025.000000 
M1023.773987,722.702820 
	C1023.773987,722.702820 1024.143921,722.982544 1024.437500,723.575256 
	C1032.928955,730.851074 1042.508179,731.312012 1052.317993,727.261597 
	C1057.818970,724.990234 1061.793335,720.822754 1062.118164,713.106079 
	C1057.989868,713.556213 1053.368530,712.667419 1050.988037,714.575134 
	C1043.154053,720.853516 1039.886475,721.379822 1031.989380,714.236694 
	C1031.529907,712.255615 1031.070435,710.274597 1030.437378,707.545654 
	C1041.721436,707.545654 1052.127563,707.545654 1062.447021,707.545654 
	C1063.852783,693.889221 1058.928101,684.230896 1049.145264,680.740723 
	C1038.526855,676.952454 1027.213135,680.192139 1021.481995,688.662109 
	C1014.962891,698.296692 1015.533813,713.303467 1022.811462,721.189270 
	C1022.811462,721.189270 1022.795776,721.082397 1022.889771,721.684631 
	C1023.228333,721.857178 1023.566956,722.029785 1023.765076,722.104248 
	C1023.765076,722.104248 1023.674561,722.249756 1023.773987,722.702820 
M753.855652,552.530273 
	C753.766663,552.981873 753.677673,553.433472 752.992188,554.339783 
	C750.369873,555.009399 747.677307,556.457947 745.135925,556.228943 
	C717.741943,553.760742 694.900330,541.233215 674.852478,523.211670 
	C662.229797,511.864746 653.059143,497.752563 644.871338,482.212982 
	C642.264343,474.915131 639.186462,467.746216 637.145264,460.293365 
	C632.439148,443.110504 631.507812,425.655853 634.459717,407.998108 
	C637.692444,388.660370 645.399902,371.197388 656.537720,354.575928 
	C657.068848,353.732086 657.599976,352.888245 658.677124,351.692749 
	C660.086792,349.779999 661.496521,347.867249 663.471802,345.601471 
	C668.239136,340.770844 672.496338,335.252136 677.883911,331.258209 
	C687.952820,323.793945 698.677795,317.214539 709.839050,310.170746 
	C711.568298,309.401550 713.297546,308.632385 715.580627,307.836304 
	C716.055664,307.562531 716.530701,307.288788 717.759705,306.947906 
	C718.548035,306.379456 719.269226,305.461151 720.134766,305.295074 
	C732.817200,302.861389 745.429565,299.504181 758.234863,298.387421 
	C783.588745,296.176331 807.338623,302.613159 829.681885,314.582214 
	C831.238403,315.415985 833.794067,316.382477 834.917358,315.698334 
	C841.525635,311.673798 847.846558,307.177582 854.654297,302.576813 
	C843.746033,294.183868 831.780396,288.270874 818.990417,283.982758 
	C814.139587,282.356415 809.111938,281.257538 803.828491,279.300354 
	C801.939209,278.765839 800.079163,277.941284 798.155518,277.747437 
	C790.180908,276.943695 782.877197,274.702698 778.033203,267.841095 
	C774.838196,263.315338 772.166748,258.419922 769.085632,253.029099 
	C768.008728,249.044876 766.931763,245.060669 766.133606,242.107849 
	C762.121155,250.530258 757.971924,259.239777 753.194763,268.165527 
	C748.718689,270.814850 744.541809,274.884247 739.721619,275.899841 
	C670.753906,290.430847 627.136658,331.094910 610.278442,399.934174 
	C609.251099,404.129150 607.749939,408.906036 604.852051,411.783447 
	C600.364197,416.239624 594.783020,419.887970 589.099243,422.757355 
	C584.208801,425.226196 578.526672,426.126923 573.009277,427.776459 
	C579.821289,429.830322 586.411194,431.817230 593.547119,434.237427 
	C603.327209,439.267944 609.213806,446.890991 611.369019,457.975708 
	C613.773987,470.345093 617.149292,482.552185 623.844299,494.220459 
	C628.816895,502.436615 633.238586,511.052460 638.858826,518.798706 
	C661.530945,550.046997 692.251587,569.212891 729.765320,577.538696 
	C733.036072,578.264587 737.554810,577.853638 740.198303,576.060608 
	C747.542297,571.079224 754.202637,565.090088 761.674622,559.046143 
	C769.331055,551.054626 776.222473,542.005066 788.448669,540.482300 
	C789.245483,540.383057 790.452087,537.962219 790.293701,536.778503 
	C789.619019,531.736328 788.648987,531.116028 781.465088,533.013000 
	C753.985840,540.268860 727.761169,535.830200 702.108887,525.096191 
	C700.451233,524.402527 698.568909,524.245911 695.406372,523.522949 
	C710.305115,534.742981 732.029907,543.914307 749.486023,546.506226 
	C752.620178,546.971497 754.577332,547.810547 753.917664,551.390198 
	C753.793335,551.608337 753.840454,551.768188 753.855652,552.530273 
M867.499207,353.315735 
	C868.017944,352.719879 868.729736,352.206909 869.026367,351.515686 
	C873.218811,341.747040 877.439209,331.988770 881.473450,322.154388 
	C883.956299,316.101746 886.133850,309.923920 888.448486,303.802277 
	C887.953918,303.335480 887.459351,302.868652 886.964722,302.401855 
	C878.630127,307.891357 870.295471,313.380859 861.364685,319.188019 
	C857.493408,322.819611 853.011292,325.990967 849.864136,330.168121 
	C839.960876,343.312347 834.768677,358.803741 828.739380,374.619629 
	C820.668884,395.426941 812.598450,416.234283 804.278259,437.685577 
	C803.604614,436.501038 803.239868,435.992828 803.006592,435.430115 
	C796.896851,420.688751 790.807129,405.939056 784.700623,391.196350 
	C777.573547,373.990051 779.331238,375.824188 762.153259,375.919128 
	C754.320557,375.962402 752.807373,376.961975 749.814270,384.121887 
	C742.471313,401.687744 735.066711,419.227875 727.385620,437.494812 
	C726.396545,435.081238 725.683350,433.420563 725.030762,431.736389 
	C717.280212,411.733917 709.515320,391.736969 701.813538,371.715668 
	C700.165710,367.432068 697.802246,363.720703 692.916138,363.322174 
	C687.454468,362.876740 681.920776,362.948364 676.439331,363.218781 
	C671.443542,363.465271 669.357056,366.750153 671.097839,371.318695 
	C681.618530,398.928955 692.210815,426.511932 702.955139,454.842102 
	C704.692871,459.338715 706.435974,463.833313 708.167480,468.332336 
	C714.837280,485.662079 713.458435,484.279816 733.002075,483.684906 
	C735.819824,483.599091 738.989014,480.691772 741.157776,478.323090 
	C742.810425,476.518158 743.135925,473.498230 744.557922,470.546631 
	C751.435486,453.248138 758.313049,435.949677 765.582581,417.665253 
	C770.881592,430.722687 775.829712,442.915344 780.954346,455.836304 
	C782.760193,460.298309 784.503357,464.786926 786.383301,469.217529 
	C792.748047,484.217834 792.766602,484.209900 809.011414,483.836761 
	C809.343750,483.829102 809.676697,483.840546 810.008545,483.825134 
	C814.784729,483.603210 818.116516,481.464294 819.883789,476.850037 
	C831.879944,445.528839 843.931091,414.228729 856.482666,382.486481 
	C858.380859,377.417419 860.279053,372.348358 862.561035,366.691223 
	C864.037903,362.364319 865.514832,358.037384 867.499207,353.315735 
M898.253296,432.876770 
	C897.493591,455.754242 890.453369,476.706238 878.163147,495.825592 
	C856.856506,528.971436 827.210327,550.069824 788.052002,557.132202 
	C785.696594,557.557068 782.884033,558.302063 781.341553,559.911438 
	C772.144592,569.507446 763.182678,579.309753 749.567871,584.763306 
	C760.515991,593.266174 762.065735,605.546814 765.815857,616.868347 
	C766.504578,616.374939 766.915771,616.238892 766.967651,616.018433 
	C767.424683,614.076355 767.788513,612.112671 768.234253,610.167725 
	C771.975098,593.846924 780.248718,583.255310 798.053711,578.936218 
	C864.178711,562.895752 904.822754,520.931519 919.981750,454.546234 
	C921.398315,448.342834 924.050598,443.259064 929.265564,439.772339 
	C933.115417,437.198334 937.153687,434.793945 941.377563,432.922394 
	C945.790039,430.967316 950.525085,429.740387 956.311890,427.793915 
	C944.548950,425.158997 933.984009,422.771240 925.501404,414.405304 
	C923.743713,410.573364 921.127686,406.903015 920.370972,402.882660 
	C916.222229,380.841095 908.569763,360.279541 895.964050,341.652924 
	C895.019165,340.256683 893.905457,338.974792 892.463135,337.114807 
	C888.368042,345.627686 884.599121,353.207214 881.136658,360.924255 
	C880.591187,362.139984 881.002380,364.211975 881.697937,365.493805 
	C892.956421,386.241821 898.836426,408.320038 898.253296,432.876770 
M499.407013,702.342651 
	C501.714050,710.844177 504.021118,719.345642 506.334442,727.870361 
	C511.322845,727.870361 516.094910,727.870361 521.098999,727.870361 
	C527.300781,706.326294 533.458252,684.935913 539.793335,662.928589 
	C536.862488,662.928589 534.196472,663.215759 531.616821,662.865845 
	C526.962341,662.234497 525.029114,663.923401 523.981262,668.650452 
	C520.928101,682.423462 517.246826,696.057373 513.534668,710.850159 
	C509.097992,694.219360 504.953918,678.685486 500.835327,663.247070 
	C496.371338,663.247070 492.280182,663.247070 488.160034,663.247070 
	C483.720581,678.614563 479.354095,693.729431 474.606171,710.164612 
	C470.594666,693.457581 466.954010,678.295227 463.324188,663.177795 
	C458.252930,663.177795 453.679199,663.177795 448.467651,663.177795 
	C454.649750,685.100952 460.715942,706.613037 466.697845,727.826233 
	C472.008606,727.826233 476.605499,727.826233 481.213013,727.826233 
	C485.385620,713.087524 489.478394,698.630798 493.571136,684.174072 
	C493.901184,684.156677 494.231201,684.139221 494.561249,684.121765 
	C496.095856,689.934509 497.630463,695.747192 499.407013,702.342651 
M760.957092,662.991150 
	C757.681152,662.588135 757.786560,665.190002 757.280273,667.184753 
	C753.763977,681.040283 750.270569,694.901672 746.598389,709.439941 
	C745.960266,707.869263 745.483032,706.995239 745.243835,706.060303 
	C742.108215,693.805481 738.812134,681.586487 735.992859,669.258728 
	C734.886414,664.420654 732.985901,661.794495 727.704102,662.926453 
	C726.908447,663.097046 726.025696,663.056030 725.214233,662.923218 
	C722.311707,662.448486 721.059204,663.771545 720.435852,666.538452 
	C719.485962,670.755188 718.183594,674.893799 716.994629,679.055176 
	C714.166382,688.953674 711.316895,698.846130 708.112366,710.007629 
	C707.443420,707.624573 707.115356,706.559631 706.845886,705.480103 
	C703.580383,692.400085 700.376343,679.304138 696.980530,666.258118 
	C696.651611,664.994507 695.231262,663.189026 694.177490,663.087402 
	C690.253357,662.708740 686.270752,662.936279 681.614075,662.936279 
	C682.460571,666.185791 683.089600,668.880005 683.865051,671.531372 
	C688.210083,686.387817 692.684937,701.206909 696.929993,716.091675 
	C700.588440,728.919739 700.478821,728.953186 713.760254,728.052551 
	C714.066528,728.031677 714.359070,727.809143 714.866455,727.591125 
	C718.943237,713.038330 723.057007,698.353516 727.470886,682.597412 
	C731.707458,698.542297 735.623352,713.280212 739.528442,727.977722 
	C744.611328,727.977722 749.240662,727.977722 754.052246,727.977722 
	C760.263000,706.378479 766.414734,684.984314 772.742004,662.979919 
	C768.758667,662.979919 765.305786,662.979919 760.957092,662.991150 
M626.174438,697.713745 
	C626.066833,701.201538 625.672974,704.708435 625.903870,708.173706 
	C626.678589,719.801514 634.304199,728.245361 644.816772,729.293213 
	C651.319885,729.941406 656.797485,727.759155 661.377319,721.976746 
	C661.689026,724.632202 661.892273,726.364136 662.073120,727.904602 
	C666.504639,727.904602 670.583435,727.904602 674.640869,727.904602 
	C674.640869,705.681396 674.640869,683.790466 674.640869,661.636475 
	C670.211304,661.636475 666.138000,661.636475 661.475220,661.636475 
	C661.475220,669.918823 661.475220,677.954285 661.475220,685.704590 
	C657.788025,683.640320 654.661682,680.935486 651.088745,680.066406 
	C639.740906,677.305908 630.229675,684.078125 626.174438,697.713745 
M876.391174,704.418640 
	C876.755737,707.218323 876.891418,710.070984 877.525696,712.808167 
	C879.922241,723.150024 887.608093,729.652100 897.071716,729.617126 
	C903.063049,729.595032 907.731750,726.832825 911.800476,721.616150 
	C912.017029,724.312073 912.147156,725.933044 912.293518,727.755005 
	C916.488403,727.755005 920.522095,727.755005 924.700806,727.755005 
	C924.700806,705.497742 924.700806,683.637939 924.700806,661.818359 
	C920.260376,661.818359 916.193848,661.818359 911.371216,661.818359 
	C911.371216,669.987000 911.371216,677.791382 911.371216,686.185608 
	C902.012878,678.479126 894.337524,677.323730 886.673645,682.445251 
	C879.251709,687.405029 876.628235,694.947876 876.391174,704.418640 
M961.501587,707.762390 
	C966.965637,707.762390 972.429626,707.762390 977.809021,707.762390 
	C980.639221,695.744629 975.291748,684.671570 965.041992,680.818359 
	C954.312317,676.784668 942.438354,680.471619 936.895996,689.557922 
	C930.409851,700.191467 932.121582,716.382507 940.512451,723.764893 
	C948.963745,731.200378 963.330078,731.734497 972.046692,724.883118 
	C975.570984,722.112976 977.558899,718.504700 977.971802,712.533020 
	C973.416016,713.567322 968.710144,713.396851 965.805420,715.600525 
	C961.949097,718.526123 957.643433,720.593750 952.715881,718.414429 
	C948.305298,716.463928 946.203918,713.068359 946.951416,707.751343 
	C951.577271,707.751343 956.041077,707.751343 961.501587,707.762390 
M814.006531,702.532471 
	C813.997742,700.367615 814.026733,698.201843 813.973328,696.038086 
	C813.789307,688.581238 810.167603,683.314209 803.162048,680.886230 
	C795.618103,678.271851 788.117798,678.560486 780.824036,682.011841 
	C775.574524,684.495728 773.098938,688.481873 774.003174,694.756653 
	C778.869507,694.376953 783.858154,696.507202 787.680481,690.918335 
	C789.723511,687.931213 796.756348,688.818542 798.973145,691.794128 
	C800.043701,693.230957 800.529053,695.467712 800.378784,697.267090 
	C800.320435,697.965881 797.825317,698.764343 796.359558,698.987305 
	C791.439392,699.735596 786.365662,699.770630 781.567566,700.956299 
	C774.217041,702.772644 770.688354,707.779419 770.938843,714.658264 
	C771.220154,722.383118 775.521606,727.499878 783.046814,729.020935 
	C789.932068,730.412720 795.879150,728.769287 800.842834,722.743713 
	C801.295715,724.940125 801.608765,726.458557 801.902100,727.881226 
	C806.038696,727.881226 809.911316,727.881226 814.005798,727.881226 
	C814.005798,719.480774 814.005798,711.501404 814.006531,702.532471 
M554.927551,680.408081 
	C542.769165,684.834167 536.659546,695.845825 538.796814,709.481140 
	C540.745605,721.914246 549.171082,729.086182 562.266113,729.458740 
	C574.587402,729.809204 584.652039,722.061462 586.888672,710.504272 
	C589.519165,696.912048 583.616699,684.503845 571.807983,680.981628 
	C566.794128,679.486084 561.080444,680.336914 554.927551,680.408081 
M868.962402,702.532715 
	C868.945740,700.032837 869.059326,697.524048 868.889160,695.034668 
	C868.232300,685.424805 861.120789,678.497864 851.761292,679.408691 
	C847.059204,679.866211 842.550110,682.307007 837.843994,683.887756 
	C837.673706,683.305481 837.240234,681.823120 836.900574,680.661499 
	C832.525696,680.661499 828.576538,680.661499 824.336182,680.661499 
	C824.336182,696.546753 824.336182,712.119873 824.336182,727.851501 
	C828.867798,727.851501 833.095642,727.851501 837.590515,727.851501 
	C837.590515,721.146057 837.556885,714.822693 837.603882,708.499939 
	C837.629822,705.006165 837.435303,701.457397 837.974792,698.033386 
	C838.773560,692.963928 842.734924,690.022217 847.496521,690.328979 
	C852.118896,690.626892 854.674561,693.180725 855.292419,698.471130 
	C855.580811,700.940308 855.503235,703.457458 855.511658,705.953125 
	C855.536194,713.220093 855.520386,720.487122 855.520386,727.836548 
	C860.320435,727.836548 864.384399,727.836548 868.960083,727.836548 
	C868.960083,719.471313 868.960083,711.496765 868.962402,702.532715 
M918.081848,270.413513 
	C915.868225,266.936646 913.213257,263.654510 911.568176,259.926727 
	C910.002563,256.379150 909.491638,252.366119 908.516968,248.557739 
	C906.103210,267.854279 894.736450,277.777924 875.704102,280.399017 
	C894.944641,282.125244 905.101135,292.882751 908.499451,311.259125 
	C911.611206,292.767883 922.175781,282.659119 939.097412,281.041718 
	C932.604248,277.834442 925.605652,274.377533 918.081848,270.413513 
M595.093506,706.500000 
	C595.093506,713.607849 595.093506,720.715698 595.093506,727.823120 
	C599.888367,727.823120 604.136841,727.823120 608.811035,727.823120 
	C608.811035,719.504211 608.743530,711.515259 608.829895,703.527893 
	C608.918030,695.380493 612.542114,691.739136 620.710449,691.328430 
	C621.639221,691.281677 622.564453,691.164429 623.182312,691.108032 
	C623.182312,687.176086 623.182312,683.591248 623.182312,680.113159 
	C616.461792,678.534424 612.695129,682.653564 608.614807,687.129333 
	C608.318909,684.540344 608.098145,682.609009 607.878174,680.684570 
	C603.621277,680.684570 599.566833,680.684570 595.101685,680.684570 
	C595.101685,689.199219 595.101685,697.349609 595.093506,706.500000 
M986.539001,708.500793 
	C986.539001,714.918701 986.539001,721.336609 986.539001,727.810059 
	C991.316101,727.810059 995.247681,727.810059 999.171387,727.810059 
	C999.412537,727.106384 999.700012,726.651611 999.705505,726.193359 
	C999.784851,719.537720 999.866760,712.881531 999.868103,706.225525 
	C999.870422,694.768555 1002.699463,691.803650 1014.126892,691.376160 
	C1014.397644,691.365967 1014.657227,691.058167 1015.052002,690.806152 
	C1015.052002,687.277405 1015.052002,683.685852 1015.052002,679.954163 
	C1008.488342,678.704285 1004.043213,681.646729 1000.125366,686.879211 
	C999.824158,684.400391 999.597412,682.534424 999.351562,680.510986 
	C995.125793,680.510986 991.191467,680.510986 986.545654,680.510986 
	C986.545654,689.618591 986.545654,698.559753 986.539001,708.500793 
M1078.388428,680.371094 
	C1075.983643,680.371094 1073.578857,680.371094 1071.302246,680.371094 
	C1071.302246,696.767029 1071.302246,712.308411 1071.302246,727.825012 
	C1075.694092,727.825012 1079.631592,727.825012 1083.869629,727.825012 
	C1083.973877,725.966125 1084.130371,724.343994 1084.144531,722.720703 
	C1084.199829,716.396301 1084.071533,710.067261 1084.270630,703.747986 
	C1084.538208,695.253296 1088.112671,691.705627 1096.518799,691.185730 
	C1097.312500,691.136658 1098.106445,691.092590 1099.118530,691.033447 
	C1099.118530,687.183350 1099.118530,683.598511 1099.118530,679.827393 
	C1092.354858,678.890076 1087.871216,682.193665 1083.839844,688.179077 
	C1083.839844,684.965637 1083.839844,682.993042 1083.839844,680.665833 
	C1082.195435,680.560852 1080.745483,680.468323 1078.388428,680.371094 
M829.464722,336.517303 
	C826.892273,334.578705 824.428955,331.267029 821.719482,331.051697 
	C818.389465,330.787018 815.576416,338.254517 816.301086,343.595703 
	C809.417908,346.501587 807.758850,353.210876 805.138977,359.263275 
	C803.595703,362.828583 803.880127,365.991425 807.737488,367.555664 
	C811.529297,369.093323 813.258179,366.007843 814.410095,363.280121 
	C818.342041,353.969604 822.254272,344.683990 829.464722,336.517303 
M834.290344,504.864380 
	C829.537292,508.747223 824.772034,512.615234 820.036194,516.518982 
	C817.539307,518.577087 817.476624,520.876587 819.246582,523.527832 
	C821.115112,526.326782 823.477478,526.083557 825.670166,524.469299 
	C829.930298,521.332947 834.103699,518.046509 838.036499,514.514404 
	C839.486084,513.212524 841.436951,510.182831 840.934143,509.432739 
	C839.565918,507.391693 837.009216,506.147278 834.290344,504.864380 
M878.547119,432.463684 
	C876.139526,431.780243 873.671509,430.480438 871.353271,430.707794 
	C870.386108,430.802643 869.492249,434.084930 869.003174,436.028229 
	C868.315613,438.760132 868.159729,441.621979 867.551697,444.378662 
	C866.756592,447.983673 868.156372,450.330383 871.533508,451.257721 
	C875.352600,452.306396 877.330200,449.805298 877.839294,446.612488 
	C878.540344,442.216034 878.563660,437.711548 878.547119,432.463684 
M860.725769,467.131226 
	C859.806030,469.255493 858.495422,471.311218 858.106567,473.528564 
	C857.855713,474.959381 858.496155,477.307159 859.560364,478.027191 
	C861.104858,479.072174 864.844666,479.829895 865.137024,479.306824 
	C867.812561,474.518768 870.028076,469.461273 872.115356,464.374695 
	C872.343445,463.818817 871.083557,462.384460 870.236511,461.701477 
	C866.509521,458.696381 864.460632,459.784760 860.725769,467.131226 
M875.930176,402.289856 
	C874.215210,397.995667 872.500305,393.701447 870.388245,388.412689 
	C868.212341,392.868561 865.841064,395.874237 865.413269,399.134888 
	C865.007446,402.228668 866.217163,405.790833 867.620300,408.713043 
	C868.055481,409.619537 872.097107,409.961426 873.317810,409.029480 
	C874.856689,407.854736 875.196777,405.109802 875.930176,402.289856 
M856.641602,487.981903 
	C854.193726,484.480988 851.591980,484.697449 849.037170,487.790436 
	C847.363525,489.816589 845.488831,491.820404 844.443970,494.164062 
	C843.884888,495.418030 844.404358,497.768524 845.326355,498.898773 
	C846.301758,500.094574 848.386841,501.118927 849.892822,501.002045 
	C853.507202,500.721558 857.984009,492.528625 856.641602,487.981903 
M797.410156,531.328613 
	C799.260681,532.870850 801.541809,536.005676 802.877686,535.644531 
	C806.318359,534.714172 809.795715,532.707703 812.375610,530.216797 
	C814.201050,528.454224 810.826050,523.376648 808.109070,523.237549 
	C804.896240,523.073059 798.634277,527.366699 797.410156,531.328613 
M871.201050,415.706818 
	C870.626831,416.938110 870.052612,418.169403 869.478333,419.400665 
	C871.448914,419.841339 873.441284,420.661774 875.380066,420.550140 
	C876.248901,420.500122 877.179810,418.657227 877.704895,417.462036 
	C877.841431,417.151215 876.651123,415.834869 875.907043,415.654846 
	C874.666687,415.354645 873.294495,415.598602 871.201050,415.706818 
z"/>
<path fill="#FBFBFC" opacity="1.000000" stroke="none" 
	d="
M780.777710,455.108002 
	C775.829712,442.915344 770.881592,430.722687 765.582581,417.665253 
	C758.313049,435.949677 751.435486,453.248138 743.954590,470.731567 
	C736.312256,465.940491 727.979736,462.800385 722.743469,455.280945 
	C717.672241,447.998505 708.915344,447.683380 702.779236,454.104034 
	C692.210815,426.511932 681.618530,398.928955 671.097839,371.318695 
	C669.357056,366.750153 671.443542,363.465271 676.439331,363.218781 
	C681.920776,362.948364 687.454468,362.876740 692.916138,363.322174 
	C697.802246,363.720703 700.165710,367.432068 701.813538,371.715668 
	C709.515320,391.736969 717.280212,411.733917 725.030762,431.736389 
	C725.683350,433.420563 726.396545,435.081238 727.385620,437.494812 
	C735.066711,419.227875 742.471313,401.687744 749.814270,384.121887 
	C752.807373,376.961975 754.320557,375.962402 762.153259,375.919128 
	C779.331238,375.824188 777.573547,373.990051 784.700623,391.196350 
	C790.807129,405.939056 796.896851,420.688751 803.006592,435.430115 
	C803.239868,435.992828 803.604614,436.501038 804.278259,437.685577 
	C812.598450,416.234283 820.668884,395.426941 829.305176,374.385132 
	C833.929688,375.150208 835.287537,378.430725 835.905823,381.929199 
	C837.599060,391.510681 836.396179,400.847412 831.728149,409.376923 
	C826.645203,418.664429 820.871765,427.571411 815.604065,436.761658 
	C813.142151,441.056763 811.480286,445.825012 808.881531,450.023346 
	C805.737244,455.102905 802.338074,455.069550 798.698669,450.513336 
	C798.077087,449.735138 797.439941,448.959503 796.732056,448.261658 
	C791.976318,443.573395 786.358215,444.458649 783.330078,450.340302 
	C782.505005,451.942780 781.629822,453.519470 780.777710,455.108002 
z"/>
<path fill="#0280C7" opacity="1.000000" stroke="none" 
	d="
M925.789856,414.994141 
	C933.984009,422.771240 944.548950,425.158997 956.311890,427.793915 
	C950.525085,429.740387 945.790039,430.967316 941.377563,432.922394 
	C937.153687,434.793945 933.115417,437.198334 929.265564,439.772339 
	C924.050598,443.259064 921.398315,448.342834 919.981750,454.546234 
	C904.822754,520.931519 864.178711,562.895752 798.053711,578.936218 
	C780.248718,583.255310 771.975098,593.846924 768.234253,610.167725 
	C767.788513,612.112671 767.424683,614.076355 766.967651,616.018433 
	C766.915771,616.238892 766.504578,616.374939 765.815857,616.868347 
	C762.065735,605.546814 760.515991,593.266174 749.567871,584.763306 
	C763.182678,579.309753 772.144592,569.507446 781.341553,559.911438 
	C782.884033,558.302063 785.696594,557.557068 788.052002,557.132202 
	C827.210327,550.069824 856.856506,528.971436 878.163147,495.825592 
	C890.453369,476.706238 897.493591,455.754242 898.703125,432.412567 
	C904.328674,428.219543 909.385193,424.307922 914.722595,420.826935 
	C918.200439,418.558746 922.086609,416.916687 925.789856,414.994141 
z"/>
<path fill="#61D788" opacity="1.000000" stroke="none" 
	d="
M769.260925,253.689987 
	C772.166748,258.419922 774.838196,263.315338 778.033203,267.841095 
	C782.877197,274.702698 790.180908,276.943695 798.155518,277.747437 
	C800.079163,277.941284 801.939209,278.765839 803.564514,279.623596 
	C792.934570,279.358093 782.509949,277.841217 772.222412,278.491974 
	C764.797729,278.961609 757.335266,281.754700 750.288757,284.526154 
	C741.833557,287.851624 733.762939,292.175568 725.601990,296.220886 
	C720.613708,298.693542 715.761414,301.441803 710.862122,304.092346 
	C708.186890,305.539673 707.435425,307.571472 709.129761,310.266968 
	C698.677795,317.214539 687.952820,323.793945 677.883911,331.258209 
	C672.496338,335.252136 668.239136,340.770844 662.937378,345.568756 
	C660.970581,345.634888 658.992554,345.163574 658.195679,345.926270 
	C653.492065,350.428558 648.987793,355.147919 644.559692,359.926941 
	C638.082214,366.917694 631.548096,373.869843 625.384094,381.132111 
	C621.674805,385.502167 618.488098,390.341461 615.331604,395.144073 
	C613.761597,397.532959 612.111023,400.202789 611.662537,402.936737 
	C609.777649,414.426056 606.517334,424.678619 593.897400,428.840057 
	C593.135803,429.091187 593.278931,432.085999 593.001099,433.804138 
	C586.411194,431.817230 579.821289,429.830322 573.009277,427.776459 
	C578.526672,426.126923 584.208801,425.226196 589.099243,422.757355 
	C594.783020,419.887970 600.364197,416.239624 604.852051,411.783447 
	C607.749939,408.906036 609.251099,404.129150 610.278442,399.934174 
	C627.136658,331.094910 670.753906,290.430847 739.721619,275.899841 
	C744.541809,274.884247 748.718689,270.814850 753.870300,268.068604 
	C758.030823,264.150299 761.444519,260.259827 765.041992,256.547485 
	C766.199036,255.353409 767.840820,254.629135 769.260925,253.689987 
z"/>
<path fill="#E4F2F5" opacity="1.000000" stroke="none" 
	d="
M780.865967,455.472168 
	C781.629822,453.519470 782.505005,451.942780 783.330078,450.340302 
	C786.358215,444.458649 791.976318,443.573395 796.732056,448.261658 
	C797.439941,448.959503 798.077087,449.735138 798.698669,450.513336 
	C802.338074,455.069550 805.737244,455.102905 808.881531,450.023346 
	C811.480286,445.825012 813.142151,441.056763 815.604065,436.761658 
	C820.871765,427.571411 826.645203,418.664429 831.728149,409.376923 
	C836.396179,400.847412 837.599060,391.510681 835.905823,381.929199 
	C835.287537,378.430725 833.929688,375.150208 829.525879,374.102539 
	C834.768677,358.803741 839.960876,343.312347 849.864136,330.168121 
	C853.011292,325.990967 857.493408,322.819611 861.874634,319.314819 
	C862.109924,322.283875 861.758179,325.121216 861.574646,327.969391 
	C860.989807,337.044891 864.319214,345.311707 866.991699,353.710480 
	C865.514832,358.037384 864.037903,362.364319 861.958252,367.031677 
	C858.566772,367.580200 855.685120,368.266022 853.037231,367.750916 
	C852.039856,367.556885 851.783203,364.454529 850.810303,362.917603 
	C850.169922,361.905884 848.962402,360.962372 847.818359,360.614288 
	C844.290283,359.540802 842.098633,362.508881 842.134888,367.880463 
	C841.421753,370.768860 840.508484,373.545990 840.892700,376.130249 
	C841.010010,376.920013 844.691772,377.179932 847.111267,377.759277 
	C850.309082,379.531311 853.136719,381.226532 855.964417,382.921753 
	C843.931091,414.228729 831.879944,445.528839 819.883789,476.850037 
	C818.116516,481.464294 814.784729,483.603210 810.008545,483.825134 
	C809.676697,483.840546 809.343750,483.829102 809.011414,483.836761 
	C792.766602,484.209900 792.748047,484.217834 786.383301,469.217529 
	C784.503357,464.786926 782.760193,460.298309 780.865967,455.472168 
z"/>
<path fill="#15BB81" opacity="1.000000" stroke="none" 
	d="
M644.982056,482.928741 
	C653.059143,497.752563 662.229797,511.864746 674.852478,523.211670 
	C694.900330,541.233215 717.741943,553.760742 745.135925,556.228943 
	C747.677307,556.457947 750.369873,555.009399 753.703552,554.158936 
	C757.793518,554.432129 760.807007,555.330444 761.133057,559.499023 
	C754.202637,565.090088 747.542297,571.079224 740.198303,576.060608 
	C737.554810,577.853638 733.036072,578.264587 729.765320,577.538696 
	C692.251587,569.212891 661.530945,550.046997 638.858826,518.798706 
	C633.238586,511.052460 628.816895,502.436615 624.014160,493.559082 
	C631.392090,492.920807 637.343689,490.520020 641.549255,484.326324 
	C642.126831,483.475677 643.810486,483.376068 644.982056,482.928741 
z"/>
<path fill="#46D577" opacity="1.000000" stroke="none" 
	d="
M644.926697,482.570862 
	C643.810486,483.376068 642.126831,483.475677 641.549255,484.326324 
	C637.343689,490.520020 631.392090,492.920807 623.984558,493.212555 
	C617.149292,482.552185 613.773987,470.345093 611.369019,457.975708 
	C609.213806,446.890991 603.327209,439.267944 593.274170,434.020782 
	C593.278931,432.085999 593.135803,429.091187 593.897400,428.840057 
	C606.517334,424.678619 609.777649,414.426056 611.662537,402.936737 
	C612.111023,400.202789 613.761597,397.532959 615.331604,395.144073 
	C618.488098,390.341461 621.674805,385.502167 625.384094,381.132111 
	C631.548096,373.869843 638.082214,366.917694 644.559692,359.926941 
	C648.987793,355.147919 653.492065,350.428558 658.195679,345.926270 
	C658.992554,345.163574 660.970581,345.634888 662.654541,345.745270 
	C661.496521,347.867249 660.086792,349.779999 658.063721,351.913696 
	C656.976318,353.053986 656.502441,353.973328 656.028503,354.892670 
	C645.399902,371.197388 637.692444,388.660370 634.459717,407.998108 
	C631.507812,425.655853 632.439148,443.110504 637.145264,460.293365 
	C639.186462,467.746216 642.264343,474.915131 644.926697,482.570862 
z"/>
<path fill="#F8F8F9" opacity="1.000000" stroke="none" 
	d="
M499.286041,701.951294 
	C497.630463,695.747192 496.095856,689.934509 494.561249,684.121765 
	C494.231201,684.139221 493.901184,684.156677 493.571136,684.174072 
	C489.478394,698.630798 485.385620,713.087524 481.213013,727.826233 
	C476.605499,727.826233 472.008606,727.826233 466.697845,727.826233 
	C460.715942,706.613037 454.649750,685.100952 448.467651,663.177795 
	C453.679199,663.177795 458.252930,663.177795 463.324188,663.177795 
	C466.954010,678.295227 470.594666,693.457581 474.606171,710.164612 
	C479.354095,693.729431 483.720581,678.614563 488.160034,663.247070 
	C492.280182,663.247070 496.371338,663.247070 500.835327,663.247070 
	C504.953918,678.685486 509.097992,694.219360 513.534668,710.850159 
	C517.246826,696.057373 520.928101,682.423462 523.981262,668.650452 
	C525.029114,663.923401 526.962341,662.234497 531.616821,662.865845 
	C534.196472,663.215759 536.862488,662.928589 539.793335,662.928589 
	C533.458252,684.935913 527.300781,706.326294 521.098999,727.870361 
	C516.094910,727.870361 511.322845,727.870361 506.334442,727.870361 
	C504.021118,719.345642 501.714050,710.844177 499.286041,701.951294 
z"/>
<path fill="#61D788" opacity="1.000000" stroke="none" 
	d="
M761.405029,662.985535 
	C765.305786,662.979919 768.758667,662.979919 772.742004,662.979919 
	C766.414734,684.984314 760.263000,706.378479 754.052246,727.977722 
	C749.240662,727.977722 744.611328,727.977722 739.528442,727.977722 
	C735.623352,713.280212 731.707458,698.542297 727.470886,682.597412 
	C723.057007,698.353516 718.943237,713.038330 714.866455,727.591125 
	C714.359070,727.809143 714.066528,728.031677 713.760254,728.052551 
	C700.478821,728.953186 700.588440,728.919739 696.929993,716.091675 
	C692.684937,701.206909 688.210083,686.387817 683.865051,671.531372 
	C683.089600,668.880005 682.460571,666.185791 681.614075,662.936279 
	C686.270752,662.936279 690.253357,662.708740 694.177490,663.087402 
	C695.231262,663.189026 696.651611,664.994507 696.980530,666.258118 
	C700.376343,679.304138 703.580383,692.400085 706.845886,705.480103 
	C707.115356,706.559631 707.443420,707.624573 708.112366,710.007629 
	C711.316895,698.846130 714.166382,688.953674 716.994629,679.055176 
	C718.183594,674.893799 719.485962,670.755188 720.435852,666.538452 
	C721.059204,663.771545 722.311707,662.448486 725.214233,662.923218 
	C726.025696,663.056030 726.908447,663.097046 727.704102,662.926453 
	C732.985901,661.794495 734.886414,664.420654 735.992859,669.258728 
	C738.812134,681.586487 742.108215,693.805481 745.243835,706.060303 
	C745.483032,706.995239 745.960266,707.869263 746.598389,709.439941 
	C750.270569,694.901672 753.763977,681.040283 757.280273,667.184753 
	C757.786560,665.190002 757.681152,662.588135 761.405029,662.985535 
z"/>
<path fill="#46D577" opacity="1.000000" stroke="none" 
	d="
M709.484375,310.218872 
	C707.435425,307.571472 708.186890,305.539673 710.862122,304.092346 
	C715.761414,301.441803 720.613708,298.693542 725.601990,296.220886 
	C733.762939,292.175568 741.833557,287.851624 750.288757,284.526154 
	C757.335266,281.754700 764.797729,278.961609 772.222412,278.491974 
	C782.509949,277.841217 792.934570,279.358093 803.732666,279.932556 
	C809.111938,281.257538 814.139587,282.356415 818.990417,283.982758 
	C831.780396,288.270874 843.746033,294.183868 854.654297,302.576813 
	C847.846558,307.177582 841.525635,311.673798 834.917358,315.698334 
	C833.794067,316.382477 831.238403,315.415985 829.681885,314.582214 
	C807.338623,302.613159 783.588745,296.176331 758.234863,298.387421 
	C745.429565,299.504181 732.817200,302.861389 720.134766,305.295074 
	C719.269226,305.461151 718.548035,306.379456 717.211609,306.776855 
	C716.117920,307.024933 715.572388,307.444092 715.026794,307.863220 
	C713.297546,308.632385 711.568298,309.401550 709.484375,310.218872 
z"/>
<path fill="#15BB81" opacity="1.000000" stroke="none" 
	d="
M925.645630,414.699707 
	C922.086609,416.916687 918.200439,418.558746 914.722595,420.826935 
	C909.385193,424.307922 904.328674,428.219543 898.821167,431.966858 
	C898.836426,408.320038 892.956421,386.241821 881.697937,365.493805 
	C881.002380,364.211975 880.591187,362.139984 881.136658,360.924255 
	C884.599121,353.207214 888.368042,345.627686 892.463135,337.114807 
	C893.905457,338.974792 895.019165,340.256683 895.964050,341.652924 
	C908.569763,360.279541 916.222229,380.841095 920.370972,402.882660 
	C921.127686,406.903015 923.743713,410.573364 925.645630,414.699707 
z"/>
<path fill="#F8F8F9" opacity="1.000000" stroke="none" 
	d="
M626.297241,697.322083 
	C630.229675,684.078125 639.740906,677.305908 651.088745,680.066406 
	C654.661682,680.935486 657.788025,683.640320 661.475220,685.704590 
	C661.475220,677.954285 661.475220,669.918823 661.475220,661.636475 
	C666.138000,661.636475 670.211304,661.636475 674.640869,661.636475 
	C674.640869,683.790466 674.640869,705.681396 674.640869,727.904602 
	C670.583435,727.904602 666.504639,727.904602 662.073120,727.904602 
	C661.892273,726.364136 661.689026,724.632202 661.377319,721.976746 
	C656.797485,727.759155 651.319885,729.941406 644.816772,729.293213 
	C634.304199,728.245361 626.678589,719.801514 625.903870,708.173706 
	C625.672974,704.708435 626.066833,701.201538 626.297241,697.322083 
M639.767029,703.590820 
	C640.543335,707.105347 640.635132,710.975647 642.238403,714.060303 
	C645.574951,720.479736 654.706726,720.573486 658.840332,714.637939 
	C662.457031,709.444580 662.627441,699.931763 659.202576,694.724304 
	C657.009827,691.390381 653.768005,689.068970 650.004944,690.235046 
	C646.839905,691.215820 643.818420,693.600159 641.522705,696.090637 
	C640.162476,697.566162 640.333069,700.452820 639.767029,703.590820 
z"/>
<path fill="#61D788" opacity="1.000000" stroke="none" 
	d="
M876.388428,703.976562 
	C876.628235,694.947876 879.251709,687.405029 886.673645,682.445251 
	C894.337524,677.323730 902.012878,678.479126 911.371216,686.185608 
	C911.371216,677.791382 911.371216,669.987000 911.371216,661.818359 
	C916.193848,661.818359 920.260376,661.818359 924.700806,661.818359 
	C924.700806,683.637939 924.700806,705.497742 924.700806,727.755005 
	C920.522095,727.755005 916.488403,727.755005 912.293518,727.755005 
	C912.147156,725.933044 912.017029,724.312073 911.800476,721.616150 
	C907.731750,726.832825 903.063049,729.595032 897.071716,729.617126 
	C887.608093,729.652100 879.922241,723.150024 877.525696,712.808167 
	C876.891418,710.070984 876.755737,707.218323 876.388428,703.976562 
M898.384521,718.303284 
	C902.649109,719.281860 906.315063,718.374390 908.943237,714.697815 
	C912.796570,709.307373 912.981750,700.398010 909.456848,694.858826 
	C905.893066,689.258728 897.913940,688.457031 893.651550,693.398621 
	C888.245972,699.665649 888.809448,715.026306 898.384521,718.303284 
z"/>
<path fill="#61D788" opacity="1.000000" stroke="none" 
	d="
M961.003235,707.756836 
	C956.041077,707.751343 951.577271,707.751343 946.951416,707.751343 
	C946.203918,713.068359 948.305298,716.463928 952.715881,718.414429 
	C957.643433,720.593750 961.949097,718.526123 965.805420,715.600525 
	C968.710144,713.396851 973.416016,713.567322 977.971802,712.533020 
	C977.558899,718.504700 975.570984,722.112976 972.046692,724.883118 
	C963.330078,731.734497 948.963745,731.200378 940.512451,723.764893 
	C932.121582,716.382507 930.409851,700.191467 936.895996,689.557922 
	C942.438354,680.471619 954.312317,676.784668 965.041992,680.818359 
	C975.291748,684.671570 980.639221,695.744629 977.809021,707.762390 
	C972.429626,707.762390 966.965637,707.762390 961.003235,707.756836 
M946.815735,698.696899 
	C952.994995,698.696899 959.174255,698.696899 965.362488,698.696899 
	C964.819763,692.726379 961.999573,689.407471 957.290100,689.052124 
	C952.044617,688.656372 948.312683,691.759033 946.815735,698.696899 
z"/>
<path fill="#61D788" opacity="1.000000" stroke="none" 
	d="
M814.006165,703.027222 
	C814.005798,711.501404 814.005798,719.480774 814.005798,727.881226 
	C809.911316,727.881226 806.038696,727.881226 801.902100,727.881226 
	C801.608765,726.458557 801.295715,724.940125 800.842834,722.743713 
	C795.879150,728.769287 789.932068,730.412720 783.046814,729.020935 
	C775.521606,727.499878 771.220154,722.383118 770.938843,714.658264 
	C770.688354,707.779419 774.217041,702.772644 781.567566,700.956299 
	C786.365662,699.770630 791.439392,699.735596 796.359558,698.987305 
	C797.825317,698.764343 800.320435,697.965881 800.378784,697.267090 
	C800.529053,695.467712 800.043701,693.230957 798.973145,691.794128 
	C796.756348,688.818542 789.723511,687.931213 787.680481,690.918335 
	C783.858154,696.507202 778.869507,694.376953 774.003174,694.756653 
	C773.098938,688.481873 775.574524,684.495728 780.824036,682.011841 
	C788.117798,678.560486 795.618103,678.271851 803.162048,680.886230 
	C810.167603,683.314209 813.789307,688.581238 813.973328,696.038086 
	C814.026733,698.201843 813.997742,700.367615 814.006165,703.027222 
M784.086243,713.546753 
	C785.237854,718.646179 788.081726,720.705139 792.732117,719.806274 
	C798.420593,718.706726 801.572083,713.419312 800.238708,707.159546 
	C797.464417,707.159546 794.667969,706.986145 791.901917,707.202576 
	C788.276855,707.486328 785.040833,708.582947 784.086243,713.546753 
z"/>
<path fill="#F8F8F9" opacity="1.000000" stroke="none" 
	d="
M555.306152,680.264709 
	C561.080444,680.336914 566.794128,679.486084 571.807983,680.981628 
	C583.616699,684.503845 589.519165,696.912048 586.888672,710.504272 
	C584.652039,722.061462 574.587402,729.809204 562.266113,729.458740 
	C549.171082,729.086182 540.745605,721.914246 538.796814,709.481140 
	C536.659546,695.845825 542.769165,684.834167 555.306152,680.264709 
M573.181580,699.540588 
	C571.306580,692.459290 568.143555,689.489441 562.692078,689.692017 
	C557.421204,689.887817 553.449341,693.407593 552.733032,700.195068 
	C552.266724,704.613586 553.033936,709.364441 554.229736,713.695435 
	C555.275085,717.481384 558.770325,719.271545 562.794189,719.240234 
	C566.979431,719.207642 570.570251,717.401672 571.695557,713.379272 
	C572.865051,709.199219 572.876648,704.695129 573.181580,699.540588 
z"/>
<path fill="#61D788" opacity="1.000000" stroke="none" 
	d="
M868.961243,703.027466 
	C868.960083,711.496765 868.960083,719.471313 868.960083,727.836548 
	C864.384399,727.836548 860.320435,727.836548 855.520386,727.836548 
	C855.520386,720.487122 855.536194,713.220093 855.511658,705.953125 
	C855.503235,703.457458 855.580811,700.940308 855.292419,698.471130 
	C854.674561,693.180725 852.118896,690.626892 847.496521,690.328979 
	C842.734924,690.022217 838.773560,692.963928 837.974792,698.033386 
	C837.435303,701.457397 837.629822,705.006165 837.603882,708.499939 
	C837.556885,714.822693 837.590515,721.146057 837.590515,727.851501 
	C833.095642,727.851501 828.867798,727.851501 824.336182,727.851501 
	C824.336182,712.119873 824.336182,696.546753 824.336182,680.661499 
	C828.576538,680.661499 832.525696,680.661499 836.900574,680.661499 
	C837.240234,681.823120 837.673706,683.305481 837.843994,683.887756 
	C842.550110,682.307007 847.059204,679.866211 851.761292,679.408691 
	C861.120789,678.497864 868.232300,685.424805 868.889160,695.034668 
	C869.059326,697.524048 868.945740,700.032837 868.961243,703.027466 
z"/>
<path fill="#F8D348" opacity="1.000000" stroke="none" 
	d="
M918.344482,270.667053 
	C925.605652,274.377533 932.604248,277.834442 939.097412,281.041718 
	C922.175781,282.659119 911.611206,292.767883 908.499451,311.259125 
	C905.101135,292.882751 894.944641,282.125244 875.704102,280.399017 
	C894.736450,277.777924 906.103210,267.854279 908.516968,248.557739 
	C909.491638,252.366119 910.002563,256.379150 911.568176,259.926727 
	C913.213257,263.654510 915.868225,266.936646 918.344482,270.667053 
z"/>
<path fill="#61D788" opacity="1.000000" stroke="none" 
	d="
M1022.721985,721.249939 
	C1015.533813,713.303467 1014.962891,698.296692 1021.481995,688.662109 
	C1027.213135,680.192139 1038.526855,676.952454 1049.145264,680.740723 
	C1058.928101,684.230896 1063.852783,693.889221 1062.447021,707.545654 
	C1052.127563,707.545654 1041.721436,707.545654 1030.437378,707.545654 
	C1031.070435,710.274597 1031.529907,712.255615 1031.648438,714.636719 
	C1026.567749,714.513000 1022.545776,714.980957 1022.721985,721.249939 
M1043.377319,699.141663 
	C1045.472900,699.141663 1047.568604,699.141663 1049.693970,699.141663 
	C1049.310181,692.537720 1045.848755,689.008240 1040.495361,689.162720 
	C1035.153931,689.316895 1031.361694,693.104309 1031.131104,699.138428 
	C1034.897217,699.138428 1038.656982,699.138428 1043.377319,699.141663 
z"/>
<path fill="#46D577" opacity="1.000000" stroke="none" 
	d="
M761.403809,559.272583 
	C760.807007,555.330444 757.793518,554.432129 754.001831,553.931580 
	C753.677673,553.433472 753.766663,552.981873 753.981567,552.072388 
	C754.107483,551.614563 754.115234,551.353516 754.115234,551.353516 
	C754.577332,547.810547 752.620178,546.971497 749.486023,546.506226 
	C732.029907,543.914307 710.305115,534.742981 695.406372,523.522949 
	C698.568909,524.245911 700.451233,524.402527 702.108887,525.096191 
	C727.761169,535.830200 753.985840,540.268860 781.465088,533.013000 
	C788.648987,531.116028 789.619019,531.736328 790.293701,536.778503 
	C790.452087,537.962219 789.245483,540.383057 788.448669,540.482300 
	C776.222473,542.005066 769.331055,551.054626 761.403809,559.272583 
z"/>
<path fill="#E4F2F5" opacity="1.000000" stroke="none" 
	d="
M702.867188,454.473083 
	C708.915344,447.683380 717.672241,447.998505 722.743469,455.280945 
	C727.979736,462.800385 736.312256,465.940491 743.701538,470.967651 
	C743.135925,473.498230 742.810425,476.518158 741.157776,478.323090 
	C738.989014,480.691772 735.819824,483.599091 733.002075,483.684906 
	C713.458435,484.279816 714.837280,485.662079 708.167480,468.332336 
	C706.435974,463.833313 704.692871,459.338715 702.867188,454.473083 
z"/>
<path fill="#F8F8F9" opacity="1.000000" stroke="none" 
	d="
M595.097595,706.000000 
	C595.101685,697.349609 595.101685,689.199219 595.101685,680.684570 
	C599.566833,680.684570 603.621277,680.684570 607.878174,680.684570 
	C608.098145,682.609009 608.318909,684.540344 608.614807,687.129333 
	C612.695129,682.653564 616.461792,678.534424 623.182312,680.113159 
	C623.182312,683.591248 623.182312,687.176086 623.182312,691.108032 
	C622.564453,691.164429 621.639221,691.281677 620.710449,691.328430 
	C612.542114,691.739136 608.918030,695.380493 608.829895,703.527893 
	C608.743530,711.515259 608.811035,719.504211 608.811035,727.823120 
	C604.136841,727.823120 599.888367,727.823120 595.093506,727.823120 
	C595.093506,720.715698 595.093506,713.607849 595.097595,706.000000 
z"/>
<path fill="#61D788" opacity="1.000000" stroke="none" 
	d="
M986.542358,708.000854 
	C986.545654,698.559753 986.545654,689.618591 986.545654,680.510986 
	C991.191467,680.510986 995.125793,680.510986 999.351562,680.510986 
	C999.597412,682.534424 999.824158,684.400391 1000.125366,686.879211 
	C1004.043213,681.646729 1008.488342,678.704285 1015.052002,679.954163 
	C1015.052002,683.685852 1015.052002,687.277405 1015.052002,690.806152 
	C1014.657227,691.058167 1014.397644,691.365967 1014.126892,691.376160 
	C1002.699463,691.803650 999.870422,694.768555 999.868103,706.225525 
	C999.866760,712.881531 999.784851,719.537720 999.705505,726.193359 
	C999.700012,726.651611 999.412537,727.106384 999.171387,727.810059 
	C995.247681,727.810059 991.316101,727.810059 986.539001,727.810059 
	C986.539001,721.336609 986.539001,714.918701 986.542358,708.000854 
z"/>
<path fill="#61D788" opacity="1.000000" stroke="none" 
	d="
M1078.842041,680.373413 
	C1080.745483,680.468323 1082.195435,680.560852 1083.839844,680.665833 
	C1083.839844,682.993042 1083.839844,684.965637 1083.839844,688.179077 
	C1087.871216,682.193665 1092.354858,678.890076 1099.118530,679.827393 
	C1099.118530,683.598511 1099.118530,687.183350 1099.118530,691.033447 
	C1098.106445,691.092590 1097.312500,691.136658 1096.518799,691.185730 
	C1088.112671,691.705627 1084.538208,695.253296 1084.270630,703.747986 
	C1084.071533,710.067261 1084.199829,716.396301 1084.144531,722.720703 
	C1084.130371,724.343994 1083.973877,725.966125 1083.869629,727.825012 
	C1079.631592,727.825012 1075.694092,727.825012 1071.302246,727.825012 
	C1071.302246,712.308411 1071.302246,696.767029 1071.302246,680.371094 
	C1073.578857,680.371094 1075.983643,680.371094 1078.842041,680.373413 
z"/>
<path fill="#61D788" opacity="1.000000" stroke="none" 
	d="
M867.245483,353.513123 
	C864.319214,345.311707 860.989807,337.044891 861.574646,327.969391 
	C861.758179,325.121216 862.109924,322.283875 862.172729,319.155945 
	C870.295471,313.380859 878.630127,307.891357 886.964722,302.401855 
	C887.459351,302.868652 887.953918,303.335480 888.448486,303.802277 
	C886.133850,309.923920 883.956299,316.101746 881.473450,322.154388 
	C877.439209,331.988770 873.218811,341.747040 869.026367,351.515686 
	C868.729736,352.206909 868.017944,352.719879 867.245483,353.513123 
z"/>
<path fill="#46D577" opacity="1.000000" stroke="none" 
	d="
M1022.766724,721.219604 
	C1022.545776,714.980957 1026.567749,714.513000 1031.763428,715.044556 
	C1039.886475,721.379822 1043.154053,720.853516 1050.988037,714.575134 
	C1053.368530,712.667419 1057.989868,713.556213 1062.118164,713.106079 
	C1061.793335,720.822754 1057.818970,724.990234 1052.317993,727.261597 
	C1042.508179,731.312012 1032.928955,730.851074 1024.400879,723.141724 
	C1024.134521,722.555359 1023.904541,722.402527 1023.674561,722.249756 
	C1023.674561,722.249756 1023.765076,722.104248 1023.731079,721.896301 
	C1023.396667,721.486389 1023.096191,721.284363 1022.795776,721.082397 
	C1022.795776,721.082397 1022.811462,721.189270 1022.766724,721.219604 
z"/>
<path fill="#46D577" opacity="1.000000" stroke="none" 
	d="
M829.379639,336.837769 
	C822.254272,344.683990 818.342041,353.969604 814.410095,363.280121 
	C813.258179,366.007843 811.529297,369.093323 807.737488,367.555664 
	C803.880127,365.991425 803.595703,362.828583 805.138977,359.263275 
	C807.758850,353.210876 809.417908,346.501587 816.301086,343.595703 
	C815.576416,338.254517 818.389465,330.787018 821.719482,331.051697 
	C824.428955,331.267029 826.892273,334.578705 829.379639,336.837769 
z"/>
<path fill="#15BB81" opacity="1.000000" stroke="none" 
	d="
M834.606934,504.725739 
	C837.009216,506.147278 839.565918,507.391693 840.934143,509.432739 
	C841.436951,510.182831 839.486084,513.212524 838.036499,514.514404 
	C834.103699,518.046509 829.930298,521.332947 825.670166,524.469299 
	C823.477478,526.083557 821.115112,526.326782 819.246582,523.527832 
	C817.476624,520.876587 817.539307,518.577087 820.036194,516.518982 
	C824.772034,512.615234 829.537292,508.747223 834.606934,504.725739 
z"/>
<path fill="#15BB81" opacity="1.000000" stroke="none" 
	d="
M878.712219,432.858521 
	C878.563660,437.711548 878.540344,442.216034 877.839294,446.612488 
	C877.330200,449.805298 875.352600,452.306396 871.533508,451.257721 
	C868.156372,450.330383 866.756592,447.983673 867.551697,444.378662 
	C868.159729,441.621979 868.315613,438.760132 869.003174,436.028229 
	C869.492249,434.084930 870.386108,430.802643 871.353271,430.707794 
	C873.671509,430.480438 876.139526,431.780243 878.712219,432.858521 
z"/>
<path fill="#15BB81" opacity="1.000000" stroke="none" 
	d="
M860.878723,466.791260 
	C864.460632,459.784760 866.509521,458.696381 870.236511,461.701477 
	C871.083557,462.384460 872.343445,463.818817 872.115356,464.374695 
	C870.028076,469.461273 867.812561,474.518768 865.137024,479.306824 
	C864.844666,479.829895 861.104858,479.072174 859.560364,478.027191 
	C858.496155,477.307159 857.855713,474.959381 858.106567,473.528564 
	C858.495422,471.311218 859.806030,469.255493 860.878723,466.791260 
z"/>
<path fill="#61D788" opacity="1.000000" stroke="none" 
	d="
M842.433594,367.695038 
	C842.098633,362.508881 844.290283,359.540802 847.818359,360.614288 
	C848.962402,360.962372 850.169922,361.905884 850.810303,362.917603 
	C851.783203,364.454529 852.039856,367.556885 853.037231,367.750916 
	C855.685120,368.266022 858.566772,367.580200 861.766357,367.325714 
	C860.279053,372.348358 858.380859,377.417419 856.223511,382.704102 
	C853.136719,381.226532 850.309082,379.531311 847.289917,377.455261 
	C850.312012,375.184509 850.728394,371.774628 849.256592,369.349243 
	C848.399963,367.937531 844.799500,368.190887 842.433594,367.695038 
z"/>
<path fill="#15BB81" opacity="1.000000" stroke="none" 
	d="
M875.992126,402.666077 
	C875.196777,405.109802 874.856689,407.854736 873.317810,409.029480 
	C872.097107,409.961426 868.055481,409.619537 867.620300,408.713043 
	C866.217163,405.790833 865.007446,402.228668 865.413269,399.134888 
	C865.841064,395.874237 868.212341,392.868561 870.388245,388.412689 
	C872.500305,393.701447 874.215210,397.995667 875.992126,402.666077 
z"/>
<path fill="#15BB81" opacity="1.000000" stroke="none" 
	d="
M856.842102,488.288696 
	C857.984009,492.528625 853.507202,500.721558 849.892822,501.002045 
	C848.386841,501.118927 846.301758,500.094574 845.326355,498.898773 
	C844.404358,497.768524 843.884888,495.418030 844.443970,494.164062 
	C845.488831,491.820404 847.363525,489.816589 849.037170,487.790436 
	C851.591980,484.697449 854.193726,484.480988 856.842102,488.288696 
z"/>
<path fill="#15BB81" opacity="1.000000" stroke="none" 
	d="
M797.389343,530.965271 
	C798.634277,527.366699 804.896240,523.073059 808.109070,523.237549 
	C810.826050,523.376648 814.201050,528.454224 812.375610,530.216797 
	C809.795715,532.707703 806.318359,534.714172 802.877686,535.644531 
	C801.541809,536.005676 799.260681,532.870850 797.389343,530.965271 
z"/>
<path fill="#E4F2F5" opacity="1.000000" stroke="none" 
	d="
M769.173279,253.359528 
	C767.840820,254.629135 766.199036,255.353409 765.041992,256.547485 
	C761.444519,260.259827 758.030823,264.150299 754.184204,267.960449 
	C757.971924,259.239777 762.121155,250.530258 766.133606,242.107849 
	C766.931763,245.060669 768.008728,249.044876 769.173279,253.359528 
z"/>
<path fill="#15BB81" opacity="1.000000" stroke="none" 
	d="
M871.589478,415.660126 
	C873.294495,415.598602 874.666687,415.354645 875.907043,415.654846 
	C876.651123,415.834869 877.841431,417.151215 877.704895,417.462036 
	C877.179810,418.657227 876.248901,420.500122 875.380066,420.550140 
	C873.441284,420.661774 871.448914,419.841339 869.478333,419.400665 
	C870.052612,418.169403 870.626831,416.938110 871.589478,415.660126 
z"/>
<path fill="#61D788" opacity="1.000000" stroke="none" 
	d="
M656.283081,354.734314 
	C656.502441,353.973328 656.976318,353.053986 657.790649,352.089539 
	C657.599976,352.888245 657.068848,353.732086 656.283081,354.734314 
z"/>
<path fill="#61D788" opacity="1.000000" stroke="none" 
	d="
M715.303711,307.849792 
	C715.572388,307.444092 716.117920,307.024933 716.834595,306.810425 
	C716.530701,307.288788 716.055664,307.562531 715.303711,307.849792 
z"/>
<path fill="#15BB81" opacity="1.000000" stroke="none" 
	d="
M754.016479,551.371826 
	C754.115234,551.353516 754.107483,551.614563 754.083252,551.742188 
	C753.840454,551.768188 753.793335,551.608337 754.016479,551.371826 
z"/>
<path fill="#61D788" opacity="1.000000" stroke="none" 
	d="
M1022.842773,721.383545 
	C1023.096191,721.284363 1023.396667,721.486389 1023.801270,721.945374 
	C1023.566956,722.029785 1023.228333,721.857178 1022.842773,721.383545 
z"/>
<path fill="#61D788" opacity="1.000000" stroke="none" 
	d="
M1023.724243,722.476257 
	C1023.904541,722.402527 1024.134521,722.555359 1024.254150,722.845337 
	C1024.143921,722.982544 1023.773987,722.702820 1023.724243,722.476257 
z"/>
<path fill="#161A25" opacity="1.000000" stroke="none" 
	d="
M842.134888,367.880463 
	C844.799500,368.190887 848.399963,367.937531 849.256592,369.349243 
	C850.728394,371.774628 850.312012,375.184509 846.919800,377.378448 
	C844.691772,377.179932 841.010010,376.920013 840.892700,376.130249 
	C840.508484,373.545990 841.421753,370.768860 842.134888,367.880463 
z"/>
<path fill="#161A25" opacity="1.000000" stroke="none" 
	d="
M639.791138,703.147888 
	C640.333069,700.452820 640.162476,697.566162 641.522705,696.090637 
	C643.818420,693.600159 646.839905,691.215820 650.004944,690.235046 
	C653.768005,689.068970 657.009827,691.390381 659.202576,694.724304 
	C662.627441,699.931763 662.457031,709.444580 658.840332,714.637939 
	C654.706726,720.573486 645.574951,720.479736 642.238403,714.060303 
	C640.635132,710.975647 640.543335,707.105347 639.791138,703.147888 
z"/>
<path fill="#161A25" opacity="1.000000" stroke="none" 
	d="
M898.021118,718.191406 
	C888.809448,715.026306 888.245972,699.665649 893.651550,693.398621 
	C897.913940,688.457031 905.893066,689.258728 909.456848,694.858826 
	C912.981750,700.398010 912.796570,709.307373 908.943237,714.697815 
	C906.315063,718.374390 902.649109,719.281860 898.021118,718.191406 
z"/>
<path fill="#161A25" opacity="1.000000" stroke="none" 
	d="
M946.699585,698.325195 
	C948.312683,691.759033 952.044617,688.656372 957.290100,689.052124 
	C961.999573,689.407471 964.819763,692.726379 965.362488,698.696899 
	C959.174255,698.696899 952.994995,698.696899 946.699585,698.325195 
z"/>
<path fill="#161A25" opacity="1.000000" stroke="none" 
	d="
M784.105103,713.160095 
	C785.040833,708.582947 788.276855,707.486328 791.901917,707.202576 
	C794.667969,706.986145 797.464417,707.159546 800.238708,707.159546 
	C801.572083,713.419312 798.420593,718.706726 792.732117,719.806274 
	C788.081726,720.705139 785.237854,718.646179 784.105103,713.160095 
z"/>
<path fill="#161A25" opacity="1.000000" stroke="none" 
	d="
M573.288086,699.936646 
	C572.876648,704.695129 572.865051,709.199219 571.695557,713.379272 
	C570.570251,717.401672 566.979431,719.207642 562.794189,719.240234 
	C558.770325,719.271545 555.275085,717.481384 554.229736,713.695435 
	C553.033936,709.364441 552.266724,704.613586 552.733032,700.195068 
	C553.449341,693.407593 557.421204,689.887817 562.692078,689.692017 
	C568.143555,689.489441 571.306580,692.459290 573.288086,699.936646 
z"/>
<path fill="#161A25" opacity="1.000000" stroke="none" 
	d="
M1042.896973,699.140015 
	C1038.656982,699.138428 1034.897217,699.138428 1031.131104,699.138428 
	C1031.361694,693.104309 1035.153931,689.316895 1040.495361,689.162720 
	C1045.848755,689.008240 1049.310181,692.537720 1049.693970,699.141663 
	C1047.568604,699.141663 1045.472900,699.141663 1042.896973,699.140015 
z"/>
</svg>