<svg xmlns:svg="http://www.w3.org/2000/svg" xmlns="http://www.w3.org/2000/svg" viewBox="565.01 234.11 399.30 390.76" width="100%" height="100%"><svg:path fill="#FBFBFC" opacity="1.000000" stroke="none" d=" M780.777710,455.108002   C775.829712,442.915344 770.881592,430.722687 765.582581,417.665253   C758.313049,435.949677 751.435486,453.248138 743.954590,470.731567   C736.312256,465.940491 727.979736,462.800385 722.743469,455.280945   C717.672241,447.998505 708.915344,447.683380 702.779236,454.104034   C692.210815,426.511932 681.618530,398.928955 671.097839,371.318695   C669.357056,366.750153 671.443542,363.465271 676.439331,363.218781   C681.920776,362.948364 687.454468,362.876740 692.916138,363.322174   C697.802246,363.720703 700.165710,367.432068 701.813538,371.715668   C709.515320,391.736969 717.280212,411.733917 725.030762,431.736389   C725.683350,433.420563 726.396545,435.081238 727.385620,437.494812   C735.066711,419.227875 742.471313,401.687744 749.814270,384.121887   C752.807373,376.961975 754.320557,375.962402 762.153259,375.919128   C779.331238,375.824188 777.573547,373.990051 784.700623,391.196350   C790.807129,405.939056 796.896851,420.688751 803.006592,435.430115   C803.239868,435.992828 803.604614,436.501038 804.278259,437.685577   C812.598450,416.234283 820.668884,395.426941 829.305176,374.385132   C833.929688,375.150208 835.287537,378.430725 835.905823,381.929199   C837.599060,391.510681 836.396179,400.847412 831.728149,409.376923   C826.645203,418.664429 820.871765,427.571411 815.604065,436.761658   C813.142151,441.056763 811.480286,445.825012 808.881531,450.023346   C805.737244,455.102905 802.338074,455.069550 798.698669,450.513336   C798.077087,449.735138 797.439941,448.959503 796.732056,448.261658   C791.976318,443.573395 786.358215,444.458649 783.330078,450.340302   C782.505005,451.942780 781.629822,453.519470 780.777710,455.108002  z" /><svg:path fill="#0280C7" opacity="1.000000" stroke="none" d=" M925.789856,414.994141   C933.984009,422.771240 944.548950,425.158997 956.311890,427.793915   C950.525085,429.740387 945.790039,430.967316 941.377563,432.922394   C937.153687,434.793945 933.115417,437.198334 929.265564,439.772339   C924.050598,443.259064 921.398315,448.342834 919.981750,454.546234   C904.822754,520.931519 864.178711,562.895752 798.053711,578.936218   C780.248718,583.255310 771.975098,593.846924 768.234253,610.167725   C767.788513,612.112671 767.424683,614.076355 766.967651,616.018433   C766.915771,616.238892 766.504578,616.374939 765.815857,616.868347   C762.065735,605.546814 760.515991,593.266174 749.567871,584.763306   C763.182678,579.309753 772.144592,569.507446 781.341553,559.911438   C782.884033,558.302063 785.696594,557.557068 788.052002,557.132202   C827.210327,550.069824 856.856506,528.971436 878.163147,495.825592   C890.453369,476.706238 897.493591,455.754242 898.703125,432.412567   C904.328674,428.219543 909.385193,424.307922 914.722595,420.826935   C918.200439,418.558746 922.086609,416.916687 925.789856,414.994141  z" /><svg:path fill="#61D788" opacity="1.000000" stroke="none" d=" M769.260925,253.689987   C772.166748,258.419922 774.838196,263.315338 778.033203,267.841095   C782.877197,274.702698 790.180908,276.943695 798.155518,277.747437   C800.079163,277.941284 801.939209,278.765839 803.564514,279.623596   C792.934570,279.358093 782.509949,277.841217 772.222412,278.491974   C764.797729,278.961609 757.335266,281.754700 750.288757,284.526154   C741.833557,287.851624 733.762939,292.175568 725.601990,296.220886   C720.613708,298.693542 715.761414,301.441803 710.862122,304.092346   C708.186890,305.539673 707.435425,307.571472 709.129761,310.266968   C698.677795,317.214539 687.952820,323.793945 677.883911,331.258209   C672.496338,335.252136 668.239136,340.770844 662.937378,345.568756   C660.970581,345.634888 658.992554,345.163574 658.195679,345.926270   C653.492065,350.428558 648.987793,355.147919 644.559692,359.926941   C638.082214,366.917694 631.548096,373.869843 625.384094,381.132111   C621.674805,385.502167 618.488098,390.341461 615.331604,395.144073   C613.761597,397.532959 612.111023,400.202789 611.662537,402.936737   C609.777649,414.426056 606.517334,424.678619 593.897400,428.840057   C593.135803,429.091187 593.278931,432.085999 593.001099,433.804138   C586.411194,431.817230 579.821289,429.830322 573.009277,427.776459   C578.526672,426.126923 584.208801,425.226196 589.099243,422.757355   C594.783020,419.887970 600.364197,416.239624 604.852051,411.783447   C607.749939,408.906036 609.251099,404.129150 610.278442,399.934174   C627.136658,331.094910 670.753906,290.430847 739.721619,275.899841   C744.541809,274.884247 748.718689,270.814850 753.870300,268.068604   C758.030823,264.150299 761.444519,260.259827 765.041992,256.547485   C766.199036,255.353409 767.840820,254.629135 769.260925,253.689987  z" /><svg:path fill="#E4F2F5" opacity="1.000000" stroke="none" d=" M780.865967,455.472168   C781.629822,453.519470 782.505005,451.942780 783.330078,450.340302   C786.358215,444.458649 791.976318,443.573395 796.732056,448.261658   C797.439941,448.959503 798.077087,449.735138 798.698669,450.513336   C802.338074,455.069550 805.737244,455.102905 808.881531,450.023346   C811.480286,445.825012 813.142151,441.056763 815.604065,436.761658   C820.871765,427.571411 826.645203,418.664429 831.728149,409.376923   C836.396179,400.847412 837.599060,391.510681 835.905823,381.929199   C835.287537,378.430725 833.929688,375.150208 829.525879,374.102539   C834.768677,358.803741 839.960876,343.312347 849.864136,330.168121   C853.011292,325.990967 857.493408,322.819611 861.874634,319.314819   C862.109924,322.283875 861.758179,325.121216 861.574646,327.969391   C860.989807,337.044891 864.319214,345.311707 866.991699,353.710480   C865.514832,358.037384 864.037903,362.364319 861.958252,367.031677   C858.566772,367.580200 855.685120,368.266022 853.037231,367.750916   C852.039856,367.556885 851.783203,364.454529 850.810303,362.917603   C850.169922,361.905884 848.962402,360.962372 847.818359,360.614288   C844.290283,359.540802 842.098633,362.508881 842.134888,367.880463   C841.421753,370.768860 840.508484,373.545990 840.892700,376.130249   C841.010010,376.920013 844.691772,377.179932 847.111267,377.759277   C850.309082,379.531311 853.136719,381.226532 855.964417,382.921753   C843.931091,414.228729 831.879944,445.528839 819.883789,476.850037   C818.116516,481.464294 814.784729,483.603210 810.008545,483.825134   C809.676697,483.840546 809.343750,483.829102 809.011414,483.836761   C792.766602,484.209900 792.748047,484.217834 786.383301,469.217529   C784.503357,464.786926 782.760193,460.298309 780.865967,455.472168  z" /><svg:path fill="#15BB81" opacity="1.000000" stroke="none" d=" M644.982056,482.928741   C653.059143,497.752563 662.229797,511.864746 674.852478,523.211670   C694.900330,541.233215 717.741943,553.760742 745.135925,556.228943   C747.677307,556.457947 750.369873,555.009399 753.703552,554.158936   C757.793518,554.432129 760.807007,555.330444 761.133057,559.499023   C754.202637,565.090088 747.542297,571.079224 740.198303,576.060608   C737.554810,577.853638 733.036072,578.264587 729.765320,577.538696   C692.251587,569.212891 661.530945,550.046997 638.858826,518.798706   C633.238586,511.052460 628.816895,502.436615 624.014160,493.559082   C631.392090,492.920807 637.343689,490.520020 641.549255,484.326324   C642.126831,483.475677 643.810486,483.376068 644.982056,482.928741  z" /><svg:path fill="#46D577" opacity="1.000000" stroke="none" d=" M644.926697,482.570862   C643.810486,483.376068 642.126831,483.475677 641.549255,484.326324   C637.343689,490.520020 631.392090,492.920807 623.984558,493.212555   C617.149292,482.552185 613.773987,470.345093 611.369019,457.975708   C609.213806,446.890991 603.327209,439.267944 593.274170,434.020782   C593.278931,432.085999 593.135803,429.091187 593.897400,428.840057   C606.517334,424.678619 609.777649,414.426056 611.662537,402.936737   C612.111023,400.202789 613.761597,397.532959 615.331604,395.144073   C618.488098,390.341461 621.674805,385.502167 625.384094,381.132111   C631.548096,373.869843 638.082214,366.917694 644.559692,359.926941   C648.987793,355.147919 653.492065,350.428558 658.195679,345.926270   C658.992554,345.163574 660.970581,345.634888 662.654541,345.745270   C661.496521,347.867249 660.086792,349.779999 658.063721,351.913696   C656.976318,353.053986 656.502441,353.973328 656.028503,354.892670   C645.399902,371.197388 637.692444,388.660370 634.459717,407.998108   C631.507812,425.655853 632.439148,443.110504 637.145264,460.293365   C639.186462,467.746216 642.264343,474.915131 644.926697,482.570862  z" /><svg:path fill="#46D577" opacity="1.000000" stroke="none" d=" M709.484375,310.218872   C707.435425,307.571472 708.186890,305.539673 710.862122,304.092346   C715.761414,301.441803 720.613708,298.693542 725.601990,296.220886   C733.762939,292.175568 741.833557,287.851624 750.288757,284.526154   C757.335266,281.754700 764.797729,278.961609 772.222412,278.491974   C782.509949,277.841217 792.934570,279.358093 803.732666,279.932556   C809.111938,281.257538 814.139587,282.356415 818.990417,283.982758   C831.780396,288.270874 843.746033,294.183868 854.654297,302.576813   C847.846558,307.177582 841.525635,311.673798 834.917358,315.698334   C833.794067,316.382477 831.238403,315.415985 829.681885,314.582214   C807.338623,302.613159 783.588745,296.176331 758.234863,298.387421   C745.429565,299.504181 732.817200,302.861389 720.134766,305.295074   C719.269226,305.461151 718.548035,306.379456 717.211609,306.776855   C716.117920,307.024933 715.572388,307.444092 715.026794,307.863220   C713.297546,308.632385 711.568298,309.401550 709.484375,310.218872  z" /><svg:path fill="#15BB81" opacity="1.000000" stroke="none" d=" M925.645630,414.699707   C922.086609,416.916687 918.200439,418.558746 914.722595,420.826935   C909.385193,424.307922 904.328674,428.219543 898.821167,431.966858   C898.836426,408.320038 892.956421,386.241821 881.697937,365.493805   C881.002380,364.211975 880.591187,362.139984 881.136658,360.924255   C884.599121,353.207214 888.368042,345.627686 892.463135,337.114807   C893.905457,338.974792 895.019165,340.256683 895.964050,341.652924   C908.569763,360.279541 916.222229,380.841095 920.370972,402.882660   C921.127686,406.903015 923.743713,410.573364 925.645630,414.699707  z" /><svg:path fill="#F8D348" opacity="1.000000" stroke="none" d=" M918.344482,270.667053   C925.605652,274.377533 932.604248,277.834442 939.097412,281.041718   C922.175781,282.659119 911.611206,292.767883 908.499451,311.259125   C905.101135,292.882751 894.944641,282.125244 875.704102,280.399017   C894.736450,277.777924 906.103210,267.854279 908.516968,248.557739   C909.491638,252.366119 910.002563,256.379150 911.568176,259.926727   C913.213257,263.654510 915.868225,266.936646 918.344482,270.667053  z" /><svg:path fill="#46D577" opacity="1.000000" stroke="none" d=" M761.403809,559.272583   C760.807007,555.330444 757.793518,554.432129 754.001831,553.931580   C753.677673,553.433472 753.766663,552.981873 753.981567,552.072388   C754.107483,551.614563 754.115234,551.353516 754.115234,551.353516   C754.577332,547.810547 752.620178,546.971497 749.486023,546.506226   C732.029907,543.914307 710.305115,534.742981 695.406372,523.522949   C698.568909,524.245911 700.451233,524.402527 702.108887,525.096191   C727.761169,535.830200 753.985840,540.268860 781.465088,533.013000   C788.648987,531.116028 789.619019,531.736328 790.293701,536.778503   C790.452087,537.962219 789.245483,540.383057 788.448669,540.482300   C776.222473,542.005066 769.331055,551.054626 761.403809,559.272583  z" /><svg:path fill="#E4F2F5" opacity="1.000000" stroke="none" d=" M702.867188,454.473083   C708.915344,447.683380 717.672241,447.998505 722.743469,455.280945   C727.979736,462.800385 736.312256,465.940491 743.701538,470.967651   C743.135925,473.498230 742.810425,476.518158 741.157776,478.323090   C738.989014,480.691772 735.819824,483.599091 733.002075,483.684906   C713.458435,484.279816 714.837280,485.662079 708.167480,468.332336   C706.435974,463.833313 704.692871,459.338715 702.867188,454.473083  z" /><svg:path fill="#61D788" opacity="1.000000" stroke="none" d=" M867.245483,353.513123   C864.319214,345.311707 860.989807,337.044891 861.574646,327.969391   C861.758179,325.121216 862.109924,322.283875 862.172729,319.155945   C870.295471,313.380859 878.630127,307.891357 886.964722,302.401855   C887.459351,302.868652 887.953918,303.335480 888.448486,303.802277   C886.133850,309.923920 883.956299,316.101746 881.473450,322.154388   C877.439209,331.988770 873.218811,341.747040 869.026367,351.515686   C868.729736,352.206909 868.017944,352.719879 867.245483,353.513123  z" /><svg:path fill="#46D577" opacity="1.000000" stroke="none" d=" M829.379639,336.837769   C822.254272,344.683990 818.342041,353.969604 814.410095,363.280121   C813.258179,366.007843 811.529297,369.093323 807.737488,367.555664   C803.880127,365.991425 803.595703,362.828583 805.138977,359.263275   C807.758850,353.210876 809.417908,346.501587 816.301086,343.595703   C815.576416,338.254517 818.389465,330.787018 821.719482,331.051697   C824.428955,331.267029 826.892273,334.578705 829.379639,336.837769  z" /><svg:path fill="#15BB81" opacity="1.000000" stroke="none" d=" M834.606934,504.725739   C837.009216,506.147278 839.565918,507.391693 840.934143,509.432739   C841.436951,510.182831 839.486084,513.212524 838.036499,514.514404   C834.103699,518.046509 829.930298,521.332947 825.670166,524.469299   C823.477478,526.083557 821.115112,526.326782 819.246582,523.527832   C817.476624,520.876587 817.539307,518.577087 820.036194,516.518982   C824.772034,512.615234 829.537292,508.747223 834.606934,504.725739  z" /><svg:path fill="#15BB81" opacity="1.000000" stroke="none" d=" M878.712219,432.858521   C878.563660,437.711548 878.540344,442.216034 877.839294,446.612488   C877.330200,449.805298 875.352600,452.306396 871.533508,451.257721   C868.156372,450.330383 866.756592,447.983673 867.551697,444.378662   C868.159729,441.621979 868.315613,438.760132 869.003174,436.028229   C869.492249,434.084930 870.386108,430.802643 871.353271,430.707794   C873.671509,430.480438 876.139526,431.780243 878.712219,432.858521  z" /><svg:path fill="#15BB81" opacity="1.000000" stroke="none" d=" M860.878723,466.791260   C864.460632,459.784760 866.509521,458.696381 870.236511,461.701477   C871.083557,462.384460 872.343445,463.818817 872.115356,464.374695   C870.028076,469.461273 867.812561,474.518768 865.137024,479.306824   C864.844666,479.829895 861.104858,479.072174 859.560364,478.027191   C858.496155,477.307159 857.855713,474.959381 858.106567,473.528564   C858.495422,471.311218 859.806030,469.255493 860.878723,466.791260  z" /><svg:path fill="#61D788" opacity="1.000000" stroke="none" d=" M842.433594,367.695038   C842.098633,362.508881 844.290283,359.540802 847.818359,360.614288   C848.962402,360.962372 850.169922,361.905884 850.810303,362.917603   C851.783203,364.454529 852.039856,367.556885 853.037231,367.750916   C855.685120,368.266022 858.566772,367.580200 861.766357,367.325714   C860.279053,372.348358 858.380859,377.417419 856.223511,382.704102   C853.136719,381.226532 850.309082,379.531311 847.289917,377.455261   C850.312012,375.184509 850.728394,371.774628 849.256592,369.349243   C848.399963,367.937531 844.799500,368.190887 842.433594,367.695038  z" /><svg:path fill="#15BB81" opacity="1.000000" stroke="none" d=" M875.992126,402.666077   C875.196777,405.109802 874.856689,407.854736 873.317810,409.029480   C872.097107,409.961426 868.055481,409.619537 867.620300,408.713043   C866.217163,405.790833 865.007446,402.228668 865.413269,399.134888   C865.841064,395.874237 868.212341,392.868561 870.388245,388.412689   C872.500305,393.701447 874.215210,397.995667 875.992126,402.666077  z" /><svg:path fill="#15BB81" opacity="1.000000" stroke="none" d=" M856.842102,488.288696   C857.984009,492.528625 853.507202,500.721558 849.892822,501.002045   C848.386841,501.118927 846.301758,500.094574 845.326355,498.898773   C844.404358,497.768524 843.884888,495.418030 844.443970,494.164062   C845.488831,491.820404 847.363525,489.816589 849.037170,487.790436   C851.591980,484.697449 854.193726,484.480988 856.842102,488.288696  z" /><svg:path fill="#15BB81" opacity="1.000000" stroke="none" d=" M797.389343,530.965271   C798.634277,527.366699 804.896240,523.073059 808.109070,523.237549   C810.826050,523.376648 814.201050,528.454224 812.375610,530.216797   C809.795715,532.707703 806.318359,534.714172 802.877686,535.644531   C801.541809,536.005676 799.260681,532.870850 797.389343,530.965271  z" /><svg:path fill="#E4F2F5" opacity="1.000000" stroke="none" d=" M769.173279,253.359528   C767.840820,254.629135 766.199036,255.353409 765.041992,256.547485   C761.444519,260.259827 758.030823,264.150299 754.184204,267.960449   C757.971924,259.239777 762.121155,250.530258 766.133606,242.107849   C766.931763,245.060669 768.008728,249.044876 769.173279,253.359528  z" /><svg:path fill="#15BB81" opacity="1.000000" stroke="none" d=" M871.589478,415.660126   C873.294495,415.598602 874.666687,415.354645 875.907043,415.654846   C876.651123,415.834869 877.841431,417.151215 877.704895,417.462036   C877.179810,418.657227 876.248901,420.500122 875.380066,420.550140   C873.441284,420.661774 871.448914,419.841339 869.478333,419.400665   C870.052612,418.169403 870.626831,416.938110 871.589478,415.660126  z" /><svg:path fill="#61D788" opacity="1.000000" stroke="none" d=" M656.283081,354.734314   C656.502441,353.973328 656.976318,353.053986 657.790649,352.089539   C657.599976,352.888245 657.068848,353.732086 656.283081,354.734314  z" /><svg:path fill="#61D788" opacity="1.000000" stroke="none" d=" M715.303711,307.849792   C715.572388,307.444092 716.117920,307.024933 716.834595,306.810425   C716.530701,307.288788 716.055664,307.562531 715.303711,307.849792  z" /><svg:path fill="#15BB81" opacity="1.000000" stroke="none" d=" M754.016479,551.371826   C754.115234,551.353516 754.107483,551.614563 754.083252,551.742188   C753.840454,551.768188 753.793335,551.608337 754.016479,551.371826  z" /></svg>